<?xml version="1.0" standalone="no"?><!DOCTYPE svg PUBLIC "-//W3C//DTD SVG 1.1//EN" "http://www.w3.org/Graphics/SVG/1.1/DTD/svg11.dtd"><svg t="1722399759921" class="icon" viewBox="0 0 1024 1024" version="1.1" xmlns="http://www.w3.org/2000/svg" p-id="1473" xmlns:xlink="http://www.w3.org/1999/xlink" width="200" height="200"><path d="M457.856 155.093333a73.386667 73.386667 0 0 1 74.154667 0l250.112 146.005334c22.954667 13.397333 37.077333 38.144 37.077333 64.896v292.010666a75.093333 75.093333 0 0 1-37.077333 64.853334l-250.112 146.048a73.386667 73.386667 0 0 1-74.154667 0L207.786667 722.901333A75.093333 75.093333 0 0 1 170.666667 658.005333V365.994667c0-26.752 14.122667-51.498667 37.077333-64.853334l250.112-146.048zM507.306667 198.4a24.149333 24.149333 0 0 0-24.746667 0L232.448 344.362667a25.045333 25.045333 0 0 0-12.373333 21.632v292.010666c0 8.96 4.693333 17.152 12.373333 21.632l250.112 146.005334c3.84 2.218667 7.978667 3.328 12.373333 3.328 4.394667 0 8.533333-1.109333 12.373334-3.328l250.112-146.005334a25.045333 25.045333 0 0 0 12.373333-21.632V365.994667c0-8.917333-4.693333-17.152-12.373333-21.632L507.306667 198.4z m-13.610667 318.549333c12.117333 0 22.186667 8.96 24.234667 20.736l0.426666 4.565334v101.76a24.96 24.96 0 0 1-24.618666 25.301333 24.789333 24.789333 0 0 1-24.234667-20.736l-0.384-4.565333v-101.76c0-13.994667 11.008-25.301333 24.618667-25.301334z m141.994667-50.773333c12.074667 0 22.144 8.96 24.192 20.778667l0.426666 4.522666v152.490667a24.96 24.96 0 0 1-24.618666 25.344 24.789333 24.789333 0 0 1-24.192-20.778667l-0.426667-4.565333v-152.490667c0-13.952 11.050667-25.301333 24.618667-25.301333z m-290.389334-102.4c12.074667 0 22.144 8.746667 24.192 20.266667l0.426667 4.437333v246.314667a24.661333 24.661333 0 0 1-48.810667 4.437333l-0.426666-4.437333V388.437333c0-13.653333 11.050667-24.704 24.618666-24.704z" fill="#000000" p-id="1474"></path></svg>